<?xml version="1.0" standalone="no"?>
<!DOCTYPE svg PUBLIC "-//W3C//DTD SVG 20010904//EN"
 "http://www.w3.org/TR/2001/REC-SVG-20010904/DTD/svg10.dtd">
<svg version="1.0" xmlns="http://www.w3.org/2000/svg"
 width="1024.000000pt" height="1024.000000pt" viewBox="0 0 1024.000000 1024.000000"
 preserveAspectRatio="xMidYMid meet">

<g transform="translate(0.000000,1024.000000) scale(0.100000,-0.100000)"
fill="#000000" stroke="none">
<path d="M10220 10230 c0 -5 5 -10 10 -10 6 0 10 5 10 10 0 6 -4 10 -10 10 -5
0 -10 -4 -10 -10z"/>
<path d="M698 10153 c7 -3 16 -2 19 1 4 3 -2 6 -13 5 -11 0 -14 -3 -6 -6z"/>
<path d="M8328 10153 c7 -3 16 -2 19 1 4 3 -2 6 -13 5 -11 0 -14 -3 -6 -6z"/>
<path d="M9228 10153 c6 -2 18 -2 25 0 6 3 1 5 -13 5 -14 0 -19 -2 -12 -5z"/>
<path d="M698 10123 c7 -3 16 -2 19 1 4 3 -2 6 -13 5 -11 0 -14 -3 -6 -6z"/>
<path d="M648 10093 c7 -3 16 -2 19 1 4 3 -2 6 -13 5 -11 0 -14 -3 -6 -6z"/>
<path d="M9848 10003 c7 -3 16 -2 19 1 4 3 -2 6 -13 5 -11 0 -14 -3 -6 -6z"/>
<path d="M9968 9953 c7 -3 16 -2 19 1 4 3 -2 6 -13 5 -11 0 -14 -3 -6 -6z"/>
<path d="M990 9860 c0 -5 5 -10 10 -10 6 0 10 5 10 10 0 6 -4 10 -10 10 -5 0
-10 -4 -10 -10z"/>
<path d="M4938 9483 c7 -3 16 -2 19 1 4 3 -2 6 -13 5 -11 0 -14 -3 -6 -6z"/>
<path d="M6088 9383 c7 -3 16 -2 19 1 4 3 -2 6 -13 5 -11 0 -14 -3 -6 -6z"/>
<path d="M5834 8961 c-37 -22 -59 -78 -49 -119 3 -16 46 -65 99 -117 67 -65
101 -108 124 -154 18 -35 30 -66 28 -68 -1 -2 -34 -7 -72 -12 l-68 -8 -74 64
c-251 219 -566 325 -922 309 -431 -18 -799 -203 -1055 -529 l-58 -75 -86 -22
c-100 -27 -255 -102 -338 -164 -217 -164 -371 -405 -440 -687 -16 -66 -18
-140 -20 -713 l-3 -640 -39 -51 c-83 -110 -121 -213 -128 -350 -9 -180 28
-284 169 -466 28 -36 162 -132 221 -158 93 -43 203 -60 373 -61 6 0 18 -26 28
-57 57 -185 220 -434 386 -589 136 -127 341 -260 488 -316 l42 -16 0 -80 0
-80 -77 -6 c-226 -18 -378 -57 -538 -138 -378 -189 -610 -455 -730 -834 -21
-65 -41 -128 -46 -139 -16 -40 -19 -173 -20 -790 -1 -346 -4 -693 -7 -771 l-5
-140 -46 -14 c-25 -8 -49 -13 -54 -12 -4 1 -6 -1 -5 -5 1 -5 -3 -17 -9 -29
-14 -24 -26 -134 -12 -113 7 11 9 11 9 -3 0 -9 13 -26 29 -37 l29 -21 2203 4
c1212 1 2215 5 2229 7 40 7 47 15 49 69 1 28 2 54 3 58 0 4 -5 21 -13 39 -10
25 -23 35 -66 48 -29 9 -57 14 -62 11 -6 -4 -10 286 -11 796 -2 872 -2 888
-11 883 -3 -2 -13 27 -22 66 -41 171 -125 350 -232 494 -225 303 -652 539
-1015 561 -151 10 -135 -1 -138 90 l-3 80 106 48 c315 145 555 367 719 667 37
67 95 220 96 250 0 13 19 17 113 22 174 9 306 55 414 142 30 25 59 45 65 45 5
0 7 4 4 9 -7 11 39 53 48 44 4 -5 6 -3 4 2 -2 6 16 40 39 76 105 161 128 378
59 549 -27 67 -49 100 -115 180 l-46 54 -3 696 c-2 561 -5 712 -17 783 -43
250 -165 477 -356 662 -106 102 -147 132 -270 199 -129 69 -317 126 -423 126
-30 0 -32 3 -55 76 -27 86 -92 191 -172 278 -100 109 -176 139 -245 97z m-688
-336 c115 -21 251 -66 339 -115 45 -25 112 -78 187 -149 l116 -111 126 0 c82
0 126 -4 126 -11 0 -5 -13 -42 -30 -81 -16 -38 -30 -83 -30 -100 0 -38 36 -74
91 -88 93 -25 354 -201 509 -344 178 -164 282 -246 384 -302 79 -43 79 -46
-27 -134 -191 -160 -414 -258 -665 -291 -112 -15 -416 -6 -537 16 -206 37
-477 117 -590 173 -110 54 -186 104 -259 171 -84 77 -124 93 -176 71 -50 -21
-80 -65 -80 -116 0 -25 7 -59 16 -77 41 -79 137 -201 242 -305 63 -62 111
-116 108 -119 -11 -11 -178 28 -255 59 -261 108 -434 297 -511 557 -16 53 -31
83 -53 104 -29 26 -36 29 -88 25 -72 -5 -154 -56 -257 -160 -122 -124 -209
-268 -266 -440 -46 -140 -59 -231 -65 -458 l-6 -215 -115 -1 c-74 0 -137 -6
-176 -17 -34 -9 -65 -17 -68 -17 -4 0 -5 264 -3 588 3 574 4 589 26 667 44
154 123 288 235 400 128 127 268 199 451 234 l89 17 43 70 c156 258 433 440
758 498 108 19 302 20 411 1z m-990 -1677 c117 -182 318 -334 544 -411 217
-74 557 -72 626 4 11 13 19 41 22 79 5 62 -13 105 -62 152 -20 20 -20 20 -1
14 310 -92 493 -120 780 -120 220 0 285 7 458 48 l57 14 0 -396 -1 -397 -38
80 c-46 97 -166 230 -265 294 -224 146 -508 141 -735 -13 -95 -65 -180 -165
-234 -276 l-42 -85 -111 0 -112 0 -36 75 c-92 192 -260 335 -456 386 -88 24
-244 24 -330 0 -203 -55 -391 -221 -470 -414 l-19 -47 0 285 c-1 387 16 504
94 675 43 95 84 156 153 227 l56 57 39 -82 c22 -45 59 -112 83 -149z m339
-763 c183 -48 319 -206 347 -403 43 -305 -166 -562 -456 -562 -46 0 -106 7
-137 16 -345 102 -455 557 -196 818 126 125 283 172 442 131z m1567 -13 c116
-41 222 -136 275 -247 156 -329 -67 -707 -418 -707 -99 0 -170 21 -245 71 -74
49 -103 80 -148 155 -87 146 -87 387 2 531 66 108 174 182 317 219 41 10 162
-2 217 -22z m-2574 -399 l-3 -177 -46 3 c-40 2 -51 -2 -73 -26 -39 -42 -34
-95 17 -150 16 -18 31 -23 68 -23 l48 0 -2 -115 -2 -115 -80 0 c-158 0 -260
42 -352 144 -118 131 -142 305 -62 463 37 73 65 102 139 142 54 30 57 31 203
31 l147 0 -2 -177z m3656 153 c57 -25 138 -107 171 -172 23 -45 30 -74 33
-139 10 -186 -82 -331 -262 -410 -49 -21 -76 -26 -160 -28 l-101 -2 -3 107 -3
108 25 -2 c86 -7 139 111 81 180 -26 31 -85 59 -85 41 0 -5 -3 -9 -7 -9 -9 0
-15 294 -7 329 l5 23 137 -4 c100 -4 148 -10 176 -22z m-1869 -453 c52 -155
175 -311 298 -382 195 -111 439 -120 641 -22 136 66 263 199 335 351 l30 65 1
-234 c0 -269 -8 -316 -73 -446 -148 -297 -405 -517 -767 -658 -280 -110 -644
-133 -946 -62 -174 41 -299 89 -446 171 -314 176 -561 472 -607 729 -6 33 -12
157 -14 275 l-2 215 42 -85 c115 -233 316 -369 573 -386 264 -19 507 114 633
346 19 36 42 85 50 110 37 109 25 100 129 100 l93 0 30 -87z m-467 -1623 c262
-53 519 -46 787 20 22 5 43 10 48 10 14 0 8 -304 -7 -355 -35 -114 -141 -222
-264 -266 -59 -21 -84 -24 -212 -24 -135 0 -150 2 -223 29 -103 38 -182 108
-232 208 l-35 71 0 169 c0 157 1 169 18 164 9 -3 63 -14 120 -26z m-350 -339
c24 -118 116 -258 229 -352 66 -54 174 -106 274 -130 84 -21 85 -22 81 -50
-11 -76 34 -129 109 -129 40 0 55 5 81 29 29 26 33 35 33 82 l0 53 65 12 c118
22 225 73 318 152 44 37 72 69 140 162 2 2 6 0 10 -5 4 -6 25 -23 48 -38 98
-67 231 -225 296 -352 28 -54 68 -158 68 -175 0 -4 -24 1 -52 11 -129 45 -306
6 -430 -93 -53 -43 -117 -139 -144 -216 -45 -129 -22 -304 55 -416 33 -47 123
-132 172 -161 l34 -20 5 -210 c5 -199 6 -212 28 -242 40 -57 119 -60 172 -8
24 25 25 29 30 207 l5 182 40 12 c22 7 36 13 30 14 -5 0 -2 5 8 11 13 8 22 7
33 -1 12 -11 14 -79 14 -436 l0 -424 -1160 0 -1160 0 0 585 0 585 -255 0 -255
0 0 -105 0 -105 145 0 145 0 0 -480 0 -480 -210 0 -211 0 4 813 c3 788 4 814
25 897 84 336 289 599 589 752 153 79 332 125 493 127 l86 1 12 -59z m1967
-79 c-3 -3 -11 0 -18 7 -9 10 -8 11 6 5 10 -3 15 -9 12 -12z m170 -102 c3 -6
-1 -7 -9 -4 -18 7 -21 14 -7 14 6 0 13 -4 16 -10z m54 -44 c9 -11 9 -16 -1
-22 -7 -4 -10 -4 -6 1 4 4 3 14 -3 22 -6 7 -9 13 -6 13 2 0 10 -6 16 -14z m41
-31 c11 -13 10 -14 -4 -9 -9 3 -16 10 -16 15 0 13 6 11 20 -6z m-19 -22 c13
-16 12 -17 -3 -4 -10 7 -18 15 -18 17 0 8 8 3 21 -13z m79 -97 c0 -2 -7 -7
-16 -10 -8 -3 -12 -2 -9 4 6 10 25 14 25 6z m-637 -564 c55 -20 120 -79 149
-137 28 -54 28 -167 0 -221 -80 -155 -290 -192 -410 -73 -88 87 -102 222 -35
324 34 51 63 75 127 102 61 27 105 28 169 5z m944 -84 c-3 -8 -6 -5 -6 6 -1
11 2 17 5 13 3 -3 4 -12 1 -19z m3 -1028 l0 -480 -205 0 -205 0 0 480 0 480
205 0 205 0 0 -480z m365 -679 c-3 -6 -11 -11 -17 -11 -6 0 -6 6 2 15 14 17
26 13 15 -4z"/>
<path d="M5480 7542 c-83 -22 -123 -116 -84 -198 20 -43 59 -64 116 -64 60 0
89 18 116 70 53 105 -37 221 -148 192z"/>
<path d="M5844 7367 c-29 -26 -37 -42 -41 -79 -11 -98 34 -158 120 -158 68 0
111 28 133 86 14 38 15 51 5 86 -21 68 -61 98 -135 98 -38 0 -53 -6 -82 -33z"/>
<path d="M6296 7379 c-71 -56 -76 -163 -10 -224 21 -20 38 -25 78 -25 77 0
130 43 141 115 8 53 -16 110 -58 135 -44 27 -116 27 -151 -1z"/>
<path d="M4308 5900 c-69 -37 -98 -103 -98 -219 1 -116 41 -187 125 -216 27
-9 50 -10 79 -3 55 12 81 30 114 80 23 35 28 54 30 123 2 44 -1 100 -7 122
-30 111 -145 164 -243 113z"/>
<path d="M5855 5906 c-40 -17 -82 -67 -95 -114 -14 -53 -12 -187 3 -225 8 -18
33 -49 56 -69 36 -34 47 -38 94 -38 61 0 102 21 143 75 25 34 29 47 32 130 5
103 -6 149 -45 196 -48 57 -121 74 -188 45z"/>
<path d="M4895 4861 c-27 -12 -51 -41 -58 -72 -25 -103 139 -255 289 -267 85
-7 185 26 254 85 48 40 90 111 90 150 0 108 -114 150 -178 65 -48 -63 -69 -80
-110 -92 -57 -15 -100 5 -146 66 -49 65 -92 84 -141 65z"/>
<path d="M5083 2699 c-43 -28 -61 -83 -44 -138 16 -56 52 -81 113 -81 43 0 54
4 84 34 29 29 34 41 34 83 0 55 -17 86 -60 108 -40 21 -89 18 -127 -6z"/>
<path d="M5086 2301 c-70 -47 -75 -145 -10 -202 61 -54 170 -15 193 69 29 104
-93 192 -183 133z"/>
<path d="M5810 1876 c0 -2 7 -7 16 -10 8 -3 12 -2 9 4 -6 10 -25 14 -25 6z"/>
<path d="M8258 6163 c7 -3 16 -2 19 1 4 3 -2 6 -13 5 -11 0 -14 -3 -6 -6z"/>
<path d="M8971 6144 c0 -11 3 -14 6 -6 3 7 2 16 -1 19 -3 4 -6 -2 -5 -13z"/>
<path d="M1393 6005 c0 -22 2 -30 4 -17 2 12 2 30 0 40 -3 9 -5 -1 -4 -23z"/>
<path d="M2133 5773 c9 -2 23 -2 30 0 6 3 -1 5 -18 5 -16 0 -22 -2 -12 -5z"/>
<path d="M1393 5510 c0 -25 2 -35 4 -22 2 12 2 32 0 45 -2 12 -4 2 -4 -23z"/>
<path d="M8982 5520 c0 -14 2 -19 5 -12 2 6 2 18 0 25 -3 6 -5 1 -5 -13z"/>
<path d="M1402 5415 c0 -16 2 -22 5 -12 2 9 2 23 0 30 -3 6 -5 -1 -5 -18z"/>
<path d="M1571 4624 c0 -11 3 -14 6 -6 3 7 2 16 -1 19 -3 4 -6 -2 -5 -13z"/>
<path d="M8616 4175 c-3 -9 -6 -22 -5 -28 0 -7 5 -1 10 12 5 13 8 26 5 28 -2
2 -6 -3 -10 -12z"/>
<path d="M1870 3975 c0 -5 10 -21 21 -35 13 -17 17 -18 10 -5 -17 33 -31 51
-31 40z"/>
<path d="M8481 3927 c-13 -21 -12 -21 5 -5 10 10 16 20 13 22 -3 3 -11 -5 -18
-17z"/>
<path d="M1986 3775 c4 -8 11 -15 16 -15 6 0 5 6 -2 15 -7 8 -14 15 -16 15 -2
0 -1 -7 2 -15z"/>
<path d="M8285 3630 c-3 -6 1 -7 9 -4 18 7 21 14 7 14 -6 0 -13 -4 -16 -10z"/>
<path d="M8256 3583 c-6 -14 -5 -15 5 -6 7 7 10 15 7 18 -3 3 -9 -2 -12 -12z"/>
<path d="M2156 3532 c-3 -5 1 -9 9 -9 8 0 12 4 9 9 -3 4 -7 8 -9 8 -2 0 -6 -4
-9 -8z"/>
<path d="M2280 3386 c0 -2 8 -10 18 -17 15 -13 16 -12 3 4 -13 16 -21 21 -21
13z"/>
<path d="M8100 3380 c0 -5 5 -10 11 -10 5 0 7 5 4 10 -3 6 -8 10 -11 10 -2 0
-4 -4 -4 -10z"/>
<path d="M8064 3339 c-3 -6 -2 -15 3 -20 5 -5 9 -1 9 11 0 23 -2 24 -12 9z"/>
<path d="M2400 3256 c0 -2 8 -10 18 -17 15 -13 16 -12 3 4 -13 16 -21 21 -21
13z"/>
<path d="M2491 3163 c7 -12 15 -20 18 -17 3 2 -3 12 -13 22 -17 16 -18 16 -5
-5z"/>
<path d="M7896 3155 c-3 -9 -11 -13 -17 -9 -8 5 -9 3 -4 -5 6 -10 11 -9 23 3
9 8 13 18 10 21 -3 3 -8 -1 -12 -10z"/>
<path d="M2590 3065 c13 -14 26 -25 28 -25 3 0 -5 11 -18 25 -13 14 -26 25
-28 25 -3 0 5 -11 18 -25z"/>
<path d="M7781 3061 c-8 -5 -9 -11 -3 -15 5 -3 12 1 16 9 6 17 6 18 -13 6z"/>
<path d="M7726 3012 c-2 -4 4 -8 14 -8 10 0 16 4 14 8 -3 4 -9 8 -14 8 -5 0
-11 -4 -14 -8z"/>
<path d="M7644 2938 c-23 -26 -24 -29 -4 -13 40 33 52 45 43 45 -5 0 -22 -15
-39 -32z"/>
<path d="M2739 2913 c-13 -16 -12 -17 4 -4 16 13 21 21 13 21 -2 0 -10 -8 -17
-17z"/>
<path d="M7565 2874 c-22 -19 -31 -31 -20 -25 19 8 74 61 64 61 -2 0 -22 -16
-44 -36z"/>
</g>
</svg>
